# xmcd
#
# Track frame offsets: 
#        150
#        14097
#        31040
#        43550
#        58595
#        72780
#        86370
#        96680
#        111152
#        125772
#        135715
#        147537
#        161427
#        174767
#        184335
#        198805
#        218560
#        234250
#        248727
#        262615
#        277762
#
# Disc length: 3871 seconds
#
# Revision: 0
# Processed by: cddbd v1.5.2PL0 Copyright (c) Steve Scherf et al.
# Submitted via: ExactAudioCopy v0.95b3
#
DISCID=1d0f1d15
DTITLE=Elvis Costello and The Attractions  - Imperial Bedroom - Disc 2
DYEAR=1900
DGENRE=
TTITLE0=Tears Before Bedtime (Alternate Version)
TTITLE1=Man Out Of Time (Alternate Version)
TTITLE2=Human Hands (Early Version)
TTITLE3=Kid About It (Alternate Version)
TTITLE4=Little Savage (Alternate Version)
TTITLE5=You Little Fool (Alternate Version)
TTITLE6=Town Cryer (Fast Version)
TTITLE7=Little Goody Two Shoes (Alternate Version)
TTITLE8=And in Every Home (Rehearsal)
TTITLE9=I Turn Around
TTITLE10=From Head to Toe
TTITLE11=The World of Broken Hearts
TTITLE12=Night Time
TTITLE13=Really Mystified
TTITLE14=The Stamping Ground
TTITLE15=Shabby Doll (Demo)
TTITLE16=Man Out Of Time (Demo)
TTITLE17=You Little Fool (Demo)
TTITLE18=Town Cryer (Demo)
TTITLE19=Seconds of Pleasure (Demo)
TTITLE20=Imperial Bedroom
EXTD=
EXTT0=
EXTT1=
EXTT2=
EXTT3=
EXTT4=
EXTT5=
EXTT6=
EXTT7=
EXTT8=
EXTT9=
EXTT10=
EXTT11=
EXTT12=
EXTT13=
EXTT14=
EXTT15=
EXTT16=
EXTT17=
EXTT18=
EXTT19=
EXTT20=
PLAYORDER=
